Coordinates
version=1
nRows=16
nColumns=40
inDegrees=yes

Units are S.I. units (second, meters, Newtons, ...)
Angles are in degrees.

endheader
time	pelvis_tilt	pelvis_list	pelvis_rotation	pelvis_tx	pelvis_ty	pelvis_tz	hip_flexion_r	hip_adduction_r	hip_rotation_r	knee_angle_r	knee_angle_r_beta	ankle_angle_r	subtalar_angle_r	mtp_angle_r	hip_flexion_l	hip_adduction_l	hip_rotation_l	knee_angle_l	knee_angle_l_beta	ankle_angle_l	subtalar_angle_l	mtp_angle_l	lumbar_extension	lumbar_bending	lumbar_rotation	arm_flex_r	arm_add_r	arm_rot_r	elbow_flex_r	pro_sup_r	wrist_flex_r	wrist_dev_r	arm_flex_l	arm_add_l	arm_rot_l	elbow_flex_l	pro_sup_l	wrist_flex_l	wrist_dev_l
      6.23000000	     -3.08459852	     -4.59315352	     -1.85286629	      0.97048418	      0.91760416	      0.40021021	     16.18177417	     -7.61477176	     -3.86976649	     52.71508473	     52.71508473	      6.95484469	     -5.46918761	    -10.72132325	     21.15882603	     -4.34431536	     -4.44066918	     33.23221087	     33.23221087	     17.54912644	    -17.04539566	      7.60296141	     -9.56386413	      5.96759155	      2.60841268	     30.65737646	    -13.91541540	     -5.46551011	     41.81624631	     45.55726391	      0.00000000	      0.00000000	     12.99956850	    -16.12950244	     23.07134200	     33.79653892	     45.12143585	      0.00000000	      0.00000000
      6.25107143	     -2.59403487	     -4.63049962	     -2.14275162	      0.96999026	      0.91623519	      0.39756749	     17.93203361	     -7.61723823	     -3.05021601	     55.97825941	     55.97825941	      5.82022518	     -6.61153970	    -10.57426978	     20.77617199	     -4.21171540	     -4.47996275	     34.13070648	     34.13070648	     18.18990483	    -17.47214932	      7.37594490	     -9.95173440	      6.05892170	      1.64660361	     26.79393896	    -13.25354605	     -5.27058653	     40.23094053	     45.58329317	      0.00000000	      0.00000000	     15.16290728	    -16.85829334	     22.64167579	     34.49363404	     45.20524362	      0.00000000	      0.00000000
      6.27214286	     -2.43740071	     -4.87914718	     -2.59900255	      0.96923293	      0.91457728	      0.39544834	     20.09440745	     -6.94519663	     -1.79029653	     59.00712855	     59.00712855	      4.85169839	     -8.62218198	     -9.02421483	     20.74226301	     -4.37818049	     -4.55804312	     35.04274223	     35.04274223	     19.04724863	    -17.80395925	      7.72374528	    -10.01112498	      6.36724763	      2.17568028	     22.29134836	    -13.76313799	     -5.31979781	     37.96259757	     45.64999725	      0.00000000	      0.00000000	     17.74871672	    -16.84919095	     21.63766814	     36.10461825	     45.37895638	      0.00000000	      0.00000000
      6.29321429	     -2.06168575	     -4.98842452	     -3.01175153	      0.96866902	      0.91358656	      0.39328721	     21.83026076	     -6.55282134	     -0.88124566	     61.49004922	     61.49004922	      4.75812748	     -9.36931338	     -5.96030261	     20.35029722	     -4.36351182	     -4.69048597	     35.77619141	     35.77619141	     20.10091821	    -17.95344162	      8.75282825	    -10.37567857	      6.53011725	      2.23076091	     17.90841926	    -13.67936262	     -5.76088255	     36.00808009	     45.73162689	      0.00000000	      0.00000000	     20.19445358	    -16.97435584	     19.66829548	     37.50543711	     45.66791475	      0.00000000	      0.00000000
      6.31428571	     -1.83484455	     -5.05119170	     -3.42349015	      0.96805534	      0.91286503	      0.39136526	     23.57783195	     -6.14270901	     -0.09018319	     63.38133653	     63.38133653	      5.43063069	     -9.70086213	     -1.66251726	     19.99931410	     -4.29181128	     -4.80760233	     36.27107670	     36.27107670	     21.10533102	    -18.10275329	      9.91541184	    -10.55947319	      6.67361380	      1.89148826	     13.94688937	    -13.16199973	     -6.94691212	     33.73875865	     45.88548090	      0.00000000	      0.00000000	     22.32256370	    -16.90286999	     15.80648767	     38.69171896	     46.15840316	      0.00000000	      0.00000000
      6.33535714	     -1.62230664	     -5.15811629	     -3.88214002	      0.96746134	      0.91283235	      0.38992293	     24.93875761	     -5.57919911	      0.57528488	     64.10077623	     64.10077623	      5.01471805	    -10.79074247	     -1.31111126	     19.44226817	     -4.33370868	     -5.09029508	     36.34305197	     36.34305197	     21.48334183	    -18.22807383	      9.83898779	    -10.76582787	      6.83986931	      1.92199356	      9.90856074	    -12.99420588	     -6.93766989	     31.61100559	     45.94407706	      0.00000000	      0.00000000	     24.64490547	    -17.29480025	     14.89873262	     40.16590510	     46.29482572	      0.00000000	      0.00000000
      6.35642857	     -1.46281681	     -5.25765531	     -4.37642192	      0.96686645	      0.91348444	      0.38887716	     26.08661269	     -5.02231376	      1.03453768	     63.96114579	     63.96114579	      4.97637244	    -11.65744907	     -1.02060347	     18.75639058	     -4.40361405	     -5.50122542	     36.06258980	     36.06258980	     21.72397837	    -18.28781250	      9.89874126	    -10.94145199	      7.01729589	      2.06372780	      6.02646389	    -12.80377553	     -7.02521669	     29.54763749	     46.00910181	      0.00000000	      0.00000000	     26.84604914	    -17.60768015	     13.67409835	     41.82223971	     46.46087462	      0.00000000	      0.00000000
      6.37750000	     -1.46971083	     -5.34585989	     -4.81850767	      0.96619595	      0.91462133	      0.38815593	     27.11308972	     -4.63419465	      1.04941952	     62.92462929	     62.92462929	      5.25825279	    -11.91193024	     -0.96460746	     18.13976517	     -4.46154402	     -5.85093109	     35.54644102	     35.54644102	     21.90017542	    -18.26975855	      9.97017723	    -10.84422252	      7.21120598	      1.07345125	      2.82985226	    -12.30062617	     -7.02705843	     28.28776040	     46.03515631	      0.00000000	      0.00000000	     28.60931569	    -18.89144073	     13.01057275	     42.49154659	     46.55171456	      0.00000000	      0.00000000
      6.39857143	     -1.45522747	     -5.37376638	     -5.43708699	      0.96556304	      0.91664218	      0.38803259	     27.80398569	     -4.05540552	      1.29736177	     60.90251518	     60.90251518	      5.08461994	    -12.89715868	     -2.17660859	     17.14582391	     -4.51539587	     -6.50415491	     34.39003841	     34.39003841	     21.55374918	    -18.22796896	      9.25329277	    -10.98466031	      7.25385777	      1.34516470	     -0.55670102	    -11.86914340	     -8.36674151	     26.19949969	     46.23493417	      0.00000000	      0.00000000	     29.53968248	    -18.18013102	      6.41490715	     46.79901811	     47.20299014	      0.00000000	      0.00000000
      6.41964286	     -1.54319832	     -5.38695666	     -6.04141506	      0.96477702	      0.91906600	      0.38826508	     28.33698786	     -3.60613515	      1.21681897	     58.15051708	     58.15051708	      5.54531771	    -12.99402666	     -2.29058203	     16.17644222	     -4.54408809	     -7.13383151	     33.04903206	     33.04903206	     21.37341202	    -18.08707005	      9.42025221	    -10.93450703	      7.29070496	      1.44417447	     -3.76085216	    -11.59318286	     -8.39939451	     24.72364188	     46.27806276	      0.00000000	      0.00000000	     31.44224770	    -18.70425389	      5.54367082	     48.37745603	     47.31056653	      0.00000000	      0.00000000
      6.44071429	     -1.71816819	     -5.38417551	     -6.67143533	      0.96394423	      0.92173206	      0.38885944	     28.64342215	     -3.20720431	      0.94318049	     54.62238167	     54.62238167	      5.93844267	    -12.62846686	     -2.70587391	     15.17951283	     -4.58347918	     -7.86519329	     31.46845079	     31.46845079	     21.01398872	    -17.85396040	      9.28775498	    -10.81302438	      7.30135494	      1.58569236	     -6.84244586	    -11.30254431	     -8.53056236	     23.69734338	     46.31204220	      0.00000000	      0.00000000	     33.08328916	    -19.17177589	      4.27625338	     50.47487457	     47.45298052	      0.00000000	      0.00000000
      6.46178571	     -2.04224421	     -5.39444368	     -7.31016286	      0.96309857	      0.92437508	      0.38983088	     28.69939791	     -2.78962091	      0.49444316	     50.23703800	     50.23703800	      5.48121155	    -12.24891873	     -5.30370206	     14.18140483	     -4.67685580	     -8.73249906	     29.53246188	     29.53246188	     19.78325313	    -17.68907063	      7.19265954	    -10.58204087	      7.33886060	      1.01068726	     -9.63403430	    -11.02724186	     -9.17640451	     24.12464643	     46.35889594	      0.00000000	      0.00000000	     33.41694218	    -19.78860808	      0.34995456	     54.33142543	     47.76153259	      0.00000000	      0.00000000
      6.48285714	     -2.30214160	     -5.34923705	     -7.94927804	      0.96226813	      0.92707719	      0.39100854	     28.48671865	     -2.46281947	     -0.07245109	     45.55663331	     45.55663331	      5.79126747	    -10.57401040	     -5.26384456	     13.13986779	     -4.66929077	     -9.55141999	     27.68401809	     27.68401809	     19.37188441	    -17.24307418	      7.19265784	    -10.38715869	      7.28959865	      1.18023556	    -12.25123153	    -10.85098063	     -9.22583598	     23.47167066	     46.37242911	      0.00000000	      0.00000000	     35.05131338	    -20.32476177	     -0.42892148	     56.16982642	     47.85046701	      0.00000000	      0.00000000
      6.50392857	     -2.69052713	     -5.37763226	     -8.55144132	      0.96147924	      0.92939554	      0.39245796	     28.07826152	     -1.99862898	     -0.71708305	     40.44355088	     40.44355088	      5.87141541	     -8.55634849	     -4.83494645	     12.26920192	     -4.76503598	    -10.32983229	     25.91359764	     25.91359764	     19.00045388	    -16.70665340	      7.21319222	     -9.98850486	      7.37576317	      1.13338541	    -14.48064789	    -10.73695803	     -9.32140680	     23.11632352	     46.37594922	      0.00000000	      0.00000000	     36.41990108	    -21.04968192	     -1.11636476	     57.63627855	     47.93186925	      0.00000000	      0.00000000
      6.52500000	     -2.84284947	     -5.23466825	     -9.18842597	      0.96087906	      0.93148780	      0.39412187	     27.27816160	     -1.81628769	     -1.53066399	     35.27076561	     35.27076561	      5.94082247	     -5.31956886	     -4.42228430	     11.09841688	     -4.64975381	    -11.29595012	     24.04741731	     24.04741731	     18.43142673	    -16.06497565	      6.59502243	     -9.98833097	      7.15784633	      1.37491766	    -16.73225407	    -10.57118550	     -9.53804694	     23.53553310	     46.35432857	      0.00000000	      0.00000000	     37.79060895	    -21.55842299	     -2.26815765	     60.12529783	     48.05862889	      0.00000000	      0.00000000
      6.54607143	     -3.11805844	     -5.09800933	     -9.74373092	      0.96042512	      0.93273586	      0.39583541	     26.50857971	     -1.63698357	     -2.54701233	     30.26022456	     30.26022456	      5.86846752	     -1.64469487	     -2.92119575	     10.11621522	     -4.55420835	    -12.25284952	     22.20402646	     22.20402646	     16.97204307	    -15.80215236	      3.56688828	     -9.83679689	      7.02566769	      1.03408388	    -19.34037867	    -10.64974146	    -10.08465821	     26.63288081	     46.23926762	      0.00000000	      0.00000000	     37.97192540	    -22.18677502	     -4.95806979	     64.11211990	     48.27282175	      0.00000000	      0.00000000
